<svg width="44.8mm" height="9.75mm" version="1.1" viewBox="0 0 44.8 9.75" xmlns="http://www.w3.org/2000/svg">
 <g transform="translate(-44.2 -65.8)">
  <g transform="matrix(.348 0 0 .348 44.2 64.5)">
   <path transform="translate(0,4)" d="m89.5 22.3h5.54l-3.95-6.58c2.2-0.878 3.42-2.63 3.42-4.83 0-3.36-2.28-5.56-6.83-5.56h-8.73v17h4.78v-5.92h2.43zm0.152-11.4c0 1.17-0.835 2.05-2.66 2.05h-3.34v-4.1h3.34c1.82 0 2.66 0.878 2.66 2.05zm-19.3-0.804v5.41c0 2.49-1.22 3.29-2.88 3.29-1.59 0-2.88-0.877-2.88-3.29v-5.49h-4.86v5.7c0 4.46 2.58 6.95 7.82 6.95 5.24 0 7.74-2.49 7.74-6.88v-5.7h-4.94zm-5.77-1.54v-3.22h-4.86v3.22zm5.77 0h4.86v-3.22h-4.86v3.22zm-30.8 8.04-2.5-11.3h-4.86l4.48 17h5.16l3.04-11.1 3.04 11.1h5.16l4.48-17h-4.86l-2.5 11.3-3.04-11.3h-4.56zm84.2-5.19h-5.92v-6.07h-4.86v17h4.86v-7.09h5.92v7.09h4.94v-17h-4.94v6.07zm-22.9-2.34v13.3h4.86v-13.3h4.56v-3.73h-14v3.73z"/>
   <path transform="translate(0,4)" d="m25.4 11h-25.4v-11h10.6v4.3h4.27v-4.3h10.6v11zm-10.6 12.7v4.3c6.1-1.15 10.6-6.44 10.6-12.4v-0.23h-25.4v0.23c0 5.91 4.5 11.2 10.6 12.4v-4.3h4.19z" fill="#c00"/>
  </g>
 </g>
</svg>
